<svg version="1.1" xmlns="http://www.w3.org/2000/svg" viewBox="0 0 250 250"><desc>Created with Snap</desc><defs></defs><g transform="matrix(0.0933,0,0,0.0933,43.2582,152.2154)"><g><g transform="matrix(1.024,0,0,-1.024,0,0)"><path d="M246 540L246 -2Q246 -127 185 -194Q125 -260 11 -260Q-66 -260 -110 -232Q-153 -203 -153 -161Q-153 -136 -137 -123Q-120 -109 -99 -109Q-71 -109 -57 -125Q-43 -140 -32 -158Q-21 -176 -8 -192Q6 -207 33 -207Q70 -207 88 -178Q107 -149 107 -78L107 290Q107 345 104 380Q102 415 99 428Q94 451 77 459Q60 468 14 468L14 502L246 540ZM99 752Q99 785 121 807Q144 830 176 830Q209 830 231 807Q254 785 254 752Q254 720 231 697Q209 675 176 675Q144 675 121 697Q99 720 99 752ZM348 475L348 530L456 530L456 586Q456 640 474 685Q493 730 526 762Q559 795 605 812Q652 830 709 830Q743 830 771 823Q800 817 821 806Q842 795 853 779Q865 763 865 745Q865 722 848 707Q831 692 805 692Q787 692 773 704Q760 716 733 748Q721 762 708 768Q695 774 681 774Q641 774 618 725Q595 677 595 592L595 530L764 530L764 475L595 475L595 166Q595 128 599 104Q604 80 616 66Q629 52 650 46Q671 41 704 40L704 0L366 0L366 40Q396 41 414 45Q432 50 441 62Q450 75 453 97Q456 120 456 158L456 475L348 475ZM1032 297L1032 165Q1032 123 1034 99Q1036 75 1045 62Q1054 50 1071 46Q1088 42 1118 40L1118 0L802 0L802 40Q832 42 850 46Q868 50 877 62Q886 74 889 96Q892 119 892 157L892 281Q892 338 890 376Q889 414 885 428Q882 441 877 448Q873 456 863 460Q854 465 839 466Q824 468 800 468L800 502L993 540L1005 453L1011 453Q1053 500 1095 520Q1138 540 1194 540Q1260 540 1303 517Q1346 494 1368 451L1372 451Q1408 493 1458 516Q1508 540 1565 540Q1625 540 1669 525Q1714 510 1739 482Q1759 459 1768 422Q1778 385 1778 319L1778 165Q1778 124 1780 100Q1783 76 1792 63Q1801 50 1818 46Q1835 42 1865 40L1865 0L1549 0L1549 40Q1579 41 1596 45Q1614 50 1623 62Q1633 75 1635 97Q1638 119 1638 157L1638 288Q1638 340 1632 376Q1626 412 1613 434Q1600 456 1578 465Q1557 475 1526 475Q1491 475 1468 458Q1446 441 1431 414Q1405 367 1405 297L1405 165Q1405 124 1407 100Q1409 76 1418 63Q1427 50 1444 46Q1462 42 1493 40L1493 0L1176 0L1176 40Q1206 42 1223 46Q1241 50 1250 62Q1260 74 1262 96Q1265 119 1265 157L1265 288Q1265 340 1259 376Q1253 412 1239 434Q1226 456 1204 465Q1182 475 1149 475Q1116 475 1094 459Q1073 443 1059 416Q1046 392 1039 361Q1032 330 1032 297Z" fill="#2d2926" style=""></path></g></g></g></svg>